<mxfile host="app.diagrams.net" agent="Mozilla/5.0 (Windows NT 10.0; Win64; x64) AppleWebKit/537.36 (KHTML, like Gecko) Chrome/138.0.0.0 Safari/537.36" version="28.0.7">
  <diagram name="Page-1" id="7755DvONJ7xTKHyLOv-T">
    <mxGraphModel dx="1042" dy="608" grid="1" gridSize="10" guides="1" tooltips="1" connect="1" arrows="1" fold="1" page="1" pageScale="1" pageWidth="827" pageHeight="1169" math="0" shadow="0">
      <root>
        <mxCell id="0" />
        <mxCell id="1" parent="0" />
        <mxCell id="0ec5TKyvHAs4mK5XBV_a-1" value="&lt;h2&gt;Student Registration System&lt;/h2&gt;" style="rounded=0;whiteSpace=wrap;html=1;" parent="1" vertex="1">
          <mxGeometry x="140" y="20" width="600" height="30" as="geometry" />
        </mxCell>
        <mxCell id="0ec5TKyvHAs4mK5XBV_a-2" value="Admin" style="rounded=0;whiteSpace=wrap;html=1;fontFamily=Georgia;fontStyle=1;fontColor=#FF3333;" parent="1" vertex="1">
          <mxGeometry x="30" y="90" width="160" height="40" as="geometry" />
        </mxCell>
        <mxCell id="0ec5TKyvHAs4mK5XBV_a-3" value="Forgot&amp;nbsp;&lt;div&gt;Password&lt;/div&gt;" style="ellipse;whiteSpace=wrap;html=1;aspect=fixed;fontStyle=1;fontColor=#FF0000;" parent="1" vertex="1">
          <mxGeometry x="60" y="180" width="80" height="80" as="geometry" />
        </mxCell>
        <mxCell id="0ec5TKyvHAs4mK5XBV_a-4" value="Send Email to user" style="ellipse;whiteSpace=wrap;html=1;aspect=fixed;fontStyle=1;fontColor=#FF0000;" parent="1" vertex="1">
          <mxGeometry x="60" y="290" width="80" height="80" as="geometry" />
        </mxCell>
        <mxCell id="0ec5TKyvHAs4mK5XBV_a-5" value="Manage System Admins" style="rounded=0;whiteSpace=wrap;html=1;fontStyle=1;fontColor=#FF0000;" parent="1" vertex="1">
          <mxGeometry x="30" y="410" width="160" height="40" as="geometry" />
        </mxCell>
        <mxCell id="0ec5TKyvHAs4mK5XBV_a-6" value="Login to System" style="ellipse;whiteSpace=wrap;html=1;aspect=fixed;fontStyle=1;fontColor=#FF0000;" parent="1" vertex="1">
          <mxGeometry x="240" y="70" width="80" height="80" as="geometry" />
        </mxCell>
        <mxCell id="0ec5TKyvHAs4mK5XBV_a-7" value="Check Roles of Access" style="ellipse;whiteSpace=wrap;html=1;aspect=fixed;fontStyle=1;fontColor=#FF0000;" parent="1" vertex="1">
          <mxGeometry x="410" y="70" width="80" height="80" as="geometry" />
        </mxCell>
        <mxCell id="0ec5TKyvHAs4mK5XBV_a-8" value="Check Credentials" style="ellipse;whiteSpace=wrap;html=1;aspect=fixed;fontStyle=1;fontColor=#FF0000;" parent="1" vertex="1">
          <mxGeometry x="240" y="190" width="80" height="80" as="geometry" />
        </mxCell>
        <mxCell id="0ec5TKyvHAs4mK5XBV_a-37" style="edgeStyle=orthogonalEdgeStyle;rounded=0;orthogonalLoop=1;jettySize=auto;html=1;" parent="1" source="0ec5TKyvHAs4mK5XBV_a-9" edge="1">
          <mxGeometry relative="1" as="geometry">
            <mxPoint x="450" y="190" as="targetPoint" />
          </mxGeometry>
        </mxCell>
        <mxCell id="0ec5TKyvHAs4mK5XBV_a-9" value="Manage Modules" style="ellipse;whiteSpace=wrap;html=1;aspect=fixed;fontStyle=1;fontColor=#FF3333;" parent="1" vertex="1">
          <mxGeometry x="410" y="190" width="80" height="80" as="geometry" />
        </mxCell>
        <mxCell id="0ec5TKyvHAs4mK5XBV_a-10" value="Manage Timetable Details" style="rounded=0;whiteSpace=wrap;html=1;fontStyle=1;fontColor=#FF0000;" parent="1" vertex="1">
          <mxGeometry x="580" y="90" width="220" height="40" as="geometry" />
        </mxCell>
        <mxCell id="0ec5TKyvHAs4mK5XBV_a-11" value="Manage Attendence Details" style="rounded=0;whiteSpace=wrap;html=1;fontStyle=1;fontColor=light-dark(#FF3333,#EDEDED);" parent="1" vertex="1">
          <mxGeometry x="580" y="140" width="220" height="40" as="geometry" />
        </mxCell>
        <mxCell id="0ec5TKyvHAs4mK5XBV_a-15" value="Manage Class Details" style="rounded=0;whiteSpace=wrap;html=1;fontColor=#FF0000;fontStyle=1" parent="1" vertex="1">
          <mxGeometry x="580" y="190" width="220" height="40" as="geometry" />
        </mxCell>
        <mxCell id="0ec5TKyvHAs4mK5XBV_a-16" value="Manage Student Details" style="rounded=0;whiteSpace=wrap;html=1;fontStyle=1;fontColor=light-dark(#FF3333,#EDEDED);" parent="1" vertex="1">
          <mxGeometry x="580" y="240" width="220" height="40" as="geometry" />
        </mxCell>
        <mxCell id="0ec5TKyvHAs4mK5XBV_a-17" value="Manage Teacher Profiles" style="rounded=0;whiteSpace=wrap;html=1;fontColor=light-dark(#FF3333,#EDEDED);fontStyle=1" parent="1" vertex="1">
          <mxGeometry x="580" y="340" width="220" height="40" as="geometry" />
        </mxCell>
        <mxCell id="0ec5TKyvHAs4mK5XBV_a-18" value="Manage Fees Details" style="rounded=0;whiteSpace=wrap;html=1;fontStyle=1;fontColor=#FF3333;" parent="1" vertex="1">
          <mxGeometry x="580" y="290" width="220" height="40" as="geometry" />
        </mxCell>
        <mxCell id="0ec5TKyvHAs4mK5XBV_a-20" value="Manage Report" style="rounded=0;whiteSpace=wrap;html=1;fontStyle=1;fontFamily=Helvetica;fontColor=#FF3333;horizontal=1;align=center;" parent="1" vertex="1">
          <mxGeometry x="580" y="390" width="230" height="40" as="geometry" />
        </mxCell>
        <mxCell id="0ec5TKyvHAs4mK5XBV_a-21" value="Manage Roles of User" style="rounded=0;whiteSpace=wrap;html=1;fontStyle=1;fontColor=#FF0000;" parent="1" vertex="1">
          <mxGeometry x="200" y="410" width="170" height="40" as="geometry" />
        </mxCell>
        <mxCell id="0ec5TKyvHAs4mK5XBV_a-22" value="Manage User Permission" style="rounded=0;whiteSpace=wrap;html=1;fontStyle=1;fontColor=#FF3333;" parent="1" vertex="1">
          <mxGeometry x="380" y="410" width="160" height="40" as="geometry" />
        </mxCell>
        <mxCell id="0ec5TKyvHAs4mK5XBV_a-24" value="" style="endArrow=classic;html=1;rounded=0;entryX=0.55;entryY=0.065;entryDx=0;entryDy=0;entryPerimeter=0;exitX=0.04;exitY=0.792;exitDx=0;exitDy=0;exitPerimeter=0;" parent="1" source="0ec5TKyvHAs4mK5XBV_a-9" target="0ec5TKyvHAs4mK5XBV_a-5" edge="1">
          <mxGeometry width="50" height="50" relative="1" as="geometry">
            <mxPoint x="410" y="260" as="sourcePoint" />
            <mxPoint x="120" y="319.4" as="targetPoint" />
          </mxGeometry>
        </mxCell>
        <mxCell id="0ec5TKyvHAs4mK5XBV_a-25" value="" style="endArrow=classic;html=1;rounded=0;entryX=0.25;entryY=0;entryDx=0;entryDy=0;exitX=0.25;exitY=0.973;exitDx=0;exitDy=0;exitPerimeter=0;" parent="1" source="0ec5TKyvHAs4mK5XBV_a-9" target="0ec5TKyvHAs4mK5XBV_a-21" edge="1">
          <mxGeometry width="50" height="50" relative="1" as="geometry">
            <mxPoint x="390" y="340" as="sourcePoint" />
            <mxPoint x="440" y="290" as="targetPoint" />
          </mxGeometry>
        </mxCell>
        <mxCell id="0ec5TKyvHAs4mK5XBV_a-26" value="" style="endArrow=classic;html=1;rounded=0;exitX=0.5;exitY=1;exitDx=0;exitDy=0;entryX=0.438;entryY=0;entryDx=0;entryDy=0;entryPerimeter=0;" parent="1" source="0ec5TKyvHAs4mK5XBV_a-9" target="0ec5TKyvHAs4mK5XBV_a-22" edge="1">
          <mxGeometry width="50" height="50" relative="1" as="geometry">
            <mxPoint x="390" y="340" as="sourcePoint" />
            <mxPoint x="440" y="290" as="targetPoint" />
          </mxGeometry>
        </mxCell>
        <mxCell id="0ec5TKyvHAs4mK5XBV_a-27" value="" style="endArrow=classic;html=1;rounded=0;exitX=1;exitY=1;exitDx=0;exitDy=0;" parent="1" source="0ec5TKyvHAs4mK5XBV_a-9" edge="1">
          <mxGeometry width="50" height="50" relative="1" as="geometry">
            <mxPoint x="390" y="340" as="sourcePoint" />
            <mxPoint x="570" y="410" as="targetPoint" />
          </mxGeometry>
        </mxCell>
        <mxCell id="0ec5TKyvHAs4mK5XBV_a-28" value="" style="endArrow=classic;html=1;rounded=0;exitX=0.89;exitY=0.742;exitDx=0;exitDy=0;exitPerimeter=0;entryX=0;entryY=0.5;entryDx=0;entryDy=0;" parent="1" source="0ec5TKyvHAs4mK5XBV_a-9" target="0ec5TKyvHAs4mK5XBV_a-17" edge="1">
          <mxGeometry width="50" height="50" relative="1" as="geometry">
            <mxPoint x="390" y="340" as="sourcePoint" />
            <mxPoint x="440" y="290" as="targetPoint" />
          </mxGeometry>
        </mxCell>
        <mxCell id="0ec5TKyvHAs4mK5XBV_a-29" value="" style="endArrow=classic;html=1;rounded=0;entryX=0;entryY=0.5;entryDx=0;entryDy=0;" parent="1" source="0ec5TKyvHAs4mK5XBV_a-9" target="0ec5TKyvHAs4mK5XBV_a-10" edge="1">
          <mxGeometry width="50" height="50" relative="1" as="geometry">
            <mxPoint x="410" y="240" as="sourcePoint" />
            <mxPoint x="414.00427124746216" y="239.99572875253787" as="targetPoint" />
            <Array as="points">
              <mxPoint x="460" y="190" />
            </Array>
          </mxGeometry>
        </mxCell>
        <mxCell id="0ec5TKyvHAs4mK5XBV_a-30" value="" style="endArrow=classic;html=1;rounded=0;exitX=1;exitY=0;exitDx=0;exitDy=0;" parent="1" source="0ec5TKyvHAs4mK5XBV_a-9" edge="1">
          <mxGeometry width="50" height="50" relative="1" as="geometry">
            <mxPoint x="530" y="210" as="sourcePoint" />
            <mxPoint x="580" y="160" as="targetPoint" />
          </mxGeometry>
        </mxCell>
        <mxCell id="0ec5TKyvHAs4mK5XBV_a-31" value="" style="endArrow=classic;html=1;rounded=0;entryX=0;entryY=0.5;entryDx=0;entryDy=0;exitX=1;exitY=0.5;exitDx=0;exitDy=0;" parent="1" source="0ec5TKyvHAs4mK5XBV_a-9" target="0ec5TKyvHAs4mK5XBV_a-15" edge="1">
          <mxGeometry width="50" height="50" relative="1" as="geometry">
            <mxPoint x="390" y="340" as="sourcePoint" />
            <mxPoint x="440" y="290" as="targetPoint" />
            <Array as="points">
              <mxPoint x="490" y="220" />
            </Array>
          </mxGeometry>
        </mxCell>
        <mxCell id="0ec5TKyvHAs4mK5XBV_a-34" value="" style="endArrow=classic;html=1;rounded=0;exitX=1;exitY=0.5;exitDx=0;exitDy=0;entryX=0;entryY=0.5;entryDx=0;entryDy=0;" parent="1" source="0ec5TKyvHAs4mK5XBV_a-9" target="0ec5TKyvHAs4mK5XBV_a-16" edge="1">
          <mxGeometry width="50" height="50" relative="1" as="geometry">
            <mxPoint x="390" y="340" as="sourcePoint" />
            <mxPoint x="440" y="290" as="targetPoint" />
          </mxGeometry>
        </mxCell>
        <mxCell id="0ec5TKyvHAs4mK5XBV_a-35" value="" style="endArrow=classic;html=1;rounded=0;entryX=0;entryY=0.5;entryDx=0;entryDy=0;exitX=0.95;exitY=0.692;exitDx=0;exitDy=0;exitPerimeter=0;" parent="1" source="0ec5TKyvHAs4mK5XBV_a-9" target="0ec5TKyvHAs4mK5XBV_a-18" edge="1">
          <mxGeometry width="50" height="50" relative="1" as="geometry">
            <mxPoint x="490" y="245" as="sourcePoint" />
            <mxPoint x="440" y="290" as="targetPoint" />
          </mxGeometry>
        </mxCell>
        <mxCell id="0ec5TKyvHAs4mK5XBV_a-36" value="" style="endArrow=classic;html=1;rounded=0;entryX=0.5;entryY=0;entryDx=0;entryDy=0;" parent="1" source="0ec5TKyvHAs4mK5XBV_a-7" target="0ec5TKyvHAs4mK5XBV_a-9" edge="1">
          <mxGeometry width="50" height="50" relative="1" as="geometry">
            <mxPoint x="390" y="340" as="sourcePoint" />
            <mxPoint x="440" y="290" as="targetPoint" />
          </mxGeometry>
        </mxCell>
        <mxCell id="0ec5TKyvHAs4mK5XBV_a-38" value="" style="endArrow=classic;html=1;rounded=0;entryX=0;entryY=0.5;entryDx=0;entryDy=0;exitX=1;exitY=0;exitDx=0;exitDy=0;" parent="1" source="0ec5TKyvHAs4mK5XBV_a-8" target="0ec5TKyvHAs4mK5XBV_a-7" edge="1">
          <mxGeometry width="50" height="50" relative="1" as="geometry">
            <mxPoint x="390" y="340" as="sourcePoint" />
            <mxPoint x="440" y="290" as="targetPoint" />
          </mxGeometry>
        </mxCell>
        <mxCell id="0ec5TKyvHAs4mK5XBV_a-39" value="" style="endArrow=classic;html=1;rounded=0;exitX=0.5;exitY=1;exitDx=0;exitDy=0;" parent="1" source="0ec5TKyvHAs4mK5XBV_a-6" target="0ec5TKyvHAs4mK5XBV_a-8" edge="1">
          <mxGeometry width="50" height="50" relative="1" as="geometry">
            <mxPoint x="390" y="340" as="sourcePoint" />
            <mxPoint x="440" y="290" as="targetPoint" />
          </mxGeometry>
        </mxCell>
        <mxCell id="0ec5TKyvHAs4mK5XBV_a-41" value="" style="endArrow=classic;html=1;rounded=0;exitX=0.46;exitY=1.065;exitDx=0;exitDy=0;exitPerimeter=0;" parent="1" source="0ec5TKyvHAs4mK5XBV_a-2" target="0ec5TKyvHAs4mK5XBV_a-3" edge="1">
          <mxGeometry width="50" height="50" relative="1" as="geometry">
            <mxPoint x="390" y="340" as="sourcePoint" />
            <mxPoint x="440" y="290" as="targetPoint" />
          </mxGeometry>
        </mxCell>
        <mxCell id="0ec5TKyvHAs4mK5XBV_a-43" value="" style="endArrow=classic;html=1;rounded=0;exitX=0.5;exitY=1;exitDx=0;exitDy=0;" parent="1" source="0ec5TKyvHAs4mK5XBV_a-3" target="0ec5TKyvHAs4mK5XBV_a-4" edge="1">
          <mxGeometry width="50" height="50" relative="1" as="geometry">
            <mxPoint x="390" y="340" as="sourcePoint" />
            <mxPoint x="440" y="290" as="targetPoint" />
          </mxGeometry>
        </mxCell>
        <mxCell id="0ec5TKyvHAs4mK5XBV_a-45" value="" style="endArrow=classic;html=1;rounded=0;exitX=1;exitY=0.5;exitDx=0;exitDy=0;" parent="1" source="0ec5TKyvHAs4mK5XBV_a-2" edge="1">
          <mxGeometry width="50" height="50" relative="1" as="geometry">
            <mxPoint x="190" y="160" as="sourcePoint" />
            <mxPoint x="240" y="110" as="targetPoint" />
          </mxGeometry>
        </mxCell>
      </root>
    </mxGraphModel>
  </diagram>
</mxfile>
